<svg xmlns="http://www.w3.org/2000/svg" xmlns:xlink="http://www.w3.org/1999/xlink" width="1080" zoomAndPan="magnify" viewBox="0 0 810 809.999993" height="1080" preserveAspectRatio="xMidYMid meet" version="1.0"><defs><clipPath id="e8ec7b071b"><path d="M 365.441406 198.042969 L 448.636719 198.042969 L 448.636719 277 L 365.441406 277 Z M 365.441406 198.042969 " clip-rule="nonzero"/></clipPath><clipPath id="94912c3a44"><path d="M 365.851562 224.324219 C 397.125 197.398438 410.398438 196.351562 419.023438 199.425781 C 427.199219 202.351562 434.324219 210.675781 439.125 218.101562 C 444 225.523438 449.550781 237.824219 448.125 244.199219 C 447.074219 248.699219 438.898438 252.523438 438.148438 254.25 C 437.925781 254.699219 438.300781 254.925781 438.074219 255.300781 C 437.773438 255.824219 436.574219 255.976562 435.675781 256.726562 C 434.175781 257.851562 431.476562 261.898438 430.125 262.273438 C 429.523438 262.425781 429.226562 261.675781 428.550781 261.824219 C 426.523438 262.351562 422.925781 269.925781 418.125 272.324219 C 411.675781 275.625 399.449219 278.023438 391.273438 276.300781 C 383.398438 274.5 374.25 269.550781 369.824219 262.273438 C 364.425781 253.5 365.851562 224.324219 365.851562 224.324219 " clip-rule="nonzero"/></clipPath><clipPath id="e87259d85b"><path d="M 369.824219 197.398438 L 445 197.398438 L 445 273.96875 L 369.824219 273.96875 Z M 369.824219 197.398438 " clip-rule="nonzero"/></clipPath><clipPath id="3497fddd92"><path d="M 369.976562 222.375 C 378.523438 211.574219 377.851562 209.699219 378.75 208.648438 C 379.648438 207.601562 381.601562 207.898438 383.023438 206.851562 C 384.898438 205.425781 386.175781 201.226562 388.574219 200.25 C 390.898438 199.199219 394.351562 201.300781 397.125 200.851562 C 399.824219 200.398438 402.898438 197.398438 404.851562 197.550781 C 406.125 197.699219 406.5 198.976562 407.851562 199.574219 C 409.875 200.625 415.050781 202.125 416.398438 202.351562 C 416.773438 202.425781 417.074219 202.351562 417.226562 202.425781 C 417.300781 202.5 417.226562 202.574219 417.375 202.648438 C 418.273438 203.324219 426.300781 203.476562 429.226562 206.476562 C 433.125 210.601562 434.773438 227.851562 435.074219 228.523438 C 435.074219 228.523438 435.074219 228.523438 435.074219 228.601562 C 435.300781 228.824219 436.726562 230.175781 437.625 231.226562 C 438.824219 232.574219 440.324219 234.300781 441.375 235.949219 C 442.425781 237.675781 443.25 239.550781 443.851562 241.5 C 444.449219 243.375 444.824219 245.398438 444.898438 247.425781 C 445.050781 249.375 444.898438 251.476562 444.523438 253.425781 C 444.226562 255.375 443.550781 257.398438 442.726562 259.199219 C 441.976562 261 440.851562 262.800781 439.648438 264.375 C 438.375 265.949219 436.949219 267.375 435.375 268.574219 C 433.800781 269.851562 432.074219 270.898438 430.199219 271.726562 C 428.398438 272.550781 426.449219 273.148438 424.5 273.523438 C 422.476562 273.898438 420.449219 273.976562 418.425781 273.898438 C 416.476562 273.75 414.449219 273.375 412.5 272.773438 C 410.625 272.175781 408.75 271.351562 407.023438 270.300781 C 405.300781 269.324219 402.300781 266.625 402.300781 266.625 C 402.300781 266.625 400.5 265.199219 399.449219 263.925781 C 397.800781 261.824219 396.300781 255.898438 393.976562 254.550781 C 392.25 253.5 388.648438 254.699219 388.050781 254.398438 C 387.898438 254.324219 387.976562 254.175781 387.824219 254.101562 C 387.300781 253.800781 384.226562 255 383.175781 254.324219 C 382.199219 253.726562 382.5 251.324219 381.601562 250.5 C 380.699219 249.675781 378.898438 250.5 377.773438 249.375 C 375.449219 247.125 373.726562 234.601562 373.050781 233.324219 C 372.976562 233.101562 372.898438 233.101562 372.898438 233.023438 C 372.824219 232.949219 372.898438 232.875 372.898438 232.726562 C 372.898438 231.976562 370.425781 225.601562 370.574219 224.699219 C 370.648438 224.550781 370.800781 224.550781 370.800781 224.398438 C 370.875 224.023438 369.976562 222.375 369.976562 222.375 " clip-rule="nonzero"/></clipPath><clipPath id="851e52dbb2"><path d="M 378.628906 646.15625 L 431.597656 646.15625 L 431.597656 747.777344 L 378.628906 747.777344 Z M 378.628906 646.15625 " clip-rule="nonzero"/></clipPath><clipPath id="cab6befdcd"><path d="M 378.898438 695.25 C 380.699219 686.023438 380.699219 686.023438 380.699219 686.023438 C 380.699219 685.949219 380.925781 685.199219 381 684.824219 C 381.074219 684.449219 381.300781 683.625 381.300781 683.625 C 381.300781 683.625 381.675781 682.875 381.824219 682.574219 C 382.050781 682.199219 382.351562 681.449219 382.425781 681.449219 C 382.425781 681.449219 382.425781 681.449219 382.5 681.375 C 382.5 681.300781 382.5 681.074219 382.5 680.925781 C 382.574219 680.550781 382.648438 679.726562 382.648438 679.648438 C 382.648438 679.648438 382.726562 679.574219 382.726562 679.425781 C 382.875 678.976562 382.800781 677.625 383.023438 676.574219 C 383.324219 675.148438 384.675781 671.851562 384.75 671.851562 C 384.75 671.851562 384.675781 672.226562 384.675781 672.226562 C 384.675781 672.226562 384.75 672.226562 384.75 672.148438 C 384.75 672.074219 384.75 671.773438 384.75 671.773438 C 384.75 671.773438 384.75 671.625 384.75 671.476562 C 384.898438 670.949219 385.726562 669 386.101562 668.175781 C 386.25 667.726562 386.398438 667.425781 386.550781 667.050781 C 386.699219 666.675781 387 666 387 666 C 387 665.925781 387.449219 665.476562 387.675781 665.101562 C 388.125 664.199219 388.574219 661.574219 389.398438 660.976562 C 389.925781 660.601562 391.125 660.898438 391.199219 660.75 C 391.273438 660.675781 391.125 660.601562 391.050781 660.449219 C 390.976562 659.550781 392.175781 654.074219 393.824219 651.75 C 395.550781 649.425781 399.449219 646.800781 401.25 646.425781 C 402.074219 646.199219 402.675781 646.949219 403.351562 646.875 C 403.875 646.800781 404.25 646.125 404.851562 646.199219 C 405.523438 646.199219 406.351562 647.324219 407.25 647.699219 C 408.226562 648.148438 409.875 647.925781 410.398438 648.449219 C 410.699219 648.675781 410.625 649.273438 410.851562 649.5 C 410.925781 649.648438 411 649.574219 411.148438 649.648438 C 411.523438 649.949219 412.273438 650.550781 412.800781 651.074219 C 413.25 651.523438 413.699219 652.125 414 652.726562 C 414.375 653.324219 414.601562 654 414.824219 654.675781 C 414.976562 655.351562 415.050781 656.175781 415.050781 656.773438 C 415.125 657.226562 414.75 657.449219 414.976562 657.898438 C 415.726562 659.324219 424.199219 661.199219 426.226562 664.125 C 428.023438 666.75 427.351562 670.800781 427.574219 674.023438 C 427.800781 677.101562 427.726562 680.398438 427.648438 683.023438 C 427.5 685.125 426.601562 686.925781 427.199219 688.5 C 427.726562 690 429.976562 690.523438 430.726562 692.324219 C 431.699219 694.726562 431.699219 699.148438 431.023438 702.148438 C 430.425781 705 427.273438 708.523438 427.125 710.023438 C 427.050781 710.550781 427.425781 711.148438 427.425781 711.226562 C 427.425781 711.226562 427.425781 712.050781 427.425781 712.425781 C 427.425781 712.875 427.425781 713.625 427.425781 713.699219 C 427.425781 713.699219 427.273438 714.449219 427.199219 714.898438 C 427.050781 715.273438 426.898438 716.101562 426.898438 716.101562 C 426.898438 716.101562 426.226562 717.226562 426.226562 717.601562 C 426.226562 717.898438 426.375 718.050781 426.449219 718.351562 C 426.601562 718.648438 426.898438 719.476562 426.898438 719.476562 C 426.898438 719.550781 426.976562 720.300781 427.050781 720.75 C 427.050781 721.125 427.125 721.949219 427.125 721.949219 C 427.125 721.949219 427.050781 722.773438 426.976562 723.226562 C 426.976562 723.601562 426.824219 724.425781 426.824219 724.425781 C 426.824219 724.425781 426.523438 725.175781 426.375 725.550781 C 426.226562 725.925781 425.925781 726.75 425.925781 726.75 C 425.925781 726.75 425.476562 727.425781 425.25 727.726562 C 424.949219 728.101562 424.800781 728.324219 424.5 728.773438 C 423.976562 729.523438 423.148438 730.949219 422.25 731.925781 C 421.273438 733.125 419.175781 733.949219 418.648438 735.300781 C 418.199219 736.574219 419.398438 738.523438 419.023438 739.648438 C 418.726562 740.550781 417.601562 741.148438 417.226562 741.675781 C 417 741.976562 416.773438 742.5 416.773438 742.5 C 416.773438 742.5 416.25 743.101562 416.023438 743.476562 C 415.726562 743.773438 415.199219 744.375 415.199219 744.375 C 415.199219 744.375 414.375 744.976562 414.226562 745.125 C 414.074219 745.199219 414.074219 745.199219 414 745.273438 C 413.773438 745.425781 413.25 746.101562 413.25 746.101562 C 413.25 746.101562 412.5 746.476562 412.125 746.699219 C 411.75 746.851562 411 747.226562 411 747.226562 C 411 747.226562 410.699219 747.300781 410.625 747.300781 C 410.625 747.300781 410.550781 747.375 410.550781 747.375 C 410.476562 747.375 410.476562 747.375 410.398438 747.375 C 410.25 747.375 410.023438 747.449219 409.800781 747.449219 C 409.425781 747.523438 408.601562 747.75 408.601562 747.75 C 408.523438 747.75 407.773438 747.75 407.324219 747.75 C 406.949219 747.675781 406.125 747.675781 406.125 747.675781 C 406.050781 747.675781 405.226562 747.449219 404.925781 747.375 C 404.699219 747.300781 404.699219 747.300781 404.398438 747.226562 C 403.648438 747.148438 400.800781 747.898438 399.449219 747.148438 C 397.949219 746.25 397.351562 743.175781 396.226562 741.75 C 395.398438 740.699219 393.824219 739.199219 393.675781 739.199219 C 393.601562 739.199219 393.601562 739.199219 393.601562 739.199219 C 393.523438 739.199219 393.375 738.976562 393.148438 738.75 C 392.398438 737.925781 388.5 734.550781 388.125 733.648438 C 387.976562 733.425781 388.125 733.351562 388.050781 733.125 C 387.976562 732.976562 387.824219 732.824219 387.675781 732.75 C 387.449219 732.601562 387.148438 732.449219 386.851562 732.300781 C 386.476562 732.148438 385.726562 731.773438 385.726562 731.773438 C 385.726562 731.773438 385.125 731.25 384.824219 730.949219 C 384.449219 730.726562 383.851562 730.199219 383.851562 730.199219 C 383.851562 730.199219 383.398438 729.523438 383.175781 729.148438 C 382.875 728.851562 382.425781 728.175781 382.425781 728.175781 C 382.425781 728.175781 382.125 727.425781 381.976562 727.050781 C 381.824219 726.675781 381.523438 725.925781 381.523438 725.925781 C 381.523438 725.925781 380.324219 721.574219 380.175781 720.148438 C 380.101562 719.324219 380.25 718.648438 380.101562 718.199219 C 380.023438 717.824219 379.726562 717.375 379.726562 717.375 C 379.726562 717.300781 378.976562 714.449219 378.898438 712.5 C 378.75 709.648438 378.824219 704.175781 379.648438 701.773438 C 380.101562 700.5 381.523438 700.050781 381.523438 699.074219 C 381.523438 697.875 378.898438 695.25 378.898438 695.25 M 384.75 671.851562 C 384.75 671.476562 384.75 671.699219 384.75 671.773438 C 384.75 671.773438 384.75 671.851562 384.75 671.851562 " clip-rule="nonzero"/></clipPath><clipPath id="1f65d715a6"><path d="M 397.0625 650.359375 L 423.886719 650.359375 L 423.886719 692.128906 L 397.0625 692.128906 Z M 397.0625 650.359375 " clip-rule="nonzero"/></clipPath><clipPath id="e77348c9c6"><path d="M 397.125 669.300781 C 399.449219 659.699219 400.425781 659.625 401.101562 658.726562 C 401.925781 657.675781 401.699219 655.648438 403.050781 654.449219 C 405.226562 652.425781 412.351562 649.648438 415.273438 650.550781 C 417.523438 651.148438 419.550781 655.949219 419.925781 656.175781 C 420 656.175781 420 656.101562 420 656.101562 C 420.074219 656.175781 420.074219 656.25 420.074219 656.324219 C 420.449219 656.851562 423.300781 659.324219 423.675781 660.675781 C 423.976562 661.726562 423.148438 662.925781 423.226562 663.675781 C 423.300781 664.199219 423.75 664.273438 423.824219 664.949219 C 423.976562 666.675781 422.175781 674.023438 421.351562 675.074219 C 421.125 675.375 420.824219 675.148438 420.601562 675.375 C 419.925781 676.425781 420.449219 683.175781 419.550781 684.375 C 419.175781 684.898438 418.425781 684.675781 418.199219 684.976562 C 417.976562 685.273438 418.050781 685.726562 417.976562 685.949219 C 417.898438 686.101562 417.75 686.25 417.675781 686.398438 C 417.601562 686.550781 417.601562 686.699219 417.523438 686.925781 C 417.375 687.148438 417.074219 687.449219 416.851562 687.75 C 416.625 688.050781 416.476562 688.5 416.25 688.726562 C 416.101562 688.875 415.949219 688.949219 415.875 689.023438 C 415.726562 689.175781 415.648438 689.324219 415.5 689.476562 C 415.273438 689.699219 414.898438 689.851562 414.601562 690.074219 C 414.300781 690.300781 414 690.601562 413.773438 690.75 C 413.625 690.898438 413.398438 690.898438 413.25 690.976562 C 413.101562 691.050781 413.023438 691.199219 412.800781 691.273438 C 412.574219 691.425781 412.125 691.425781 411.75 691.574219 C 411.449219 691.648438 411.074219 691.875 410.773438 691.949219 C 410.550781 692.023438 410.398438 691.949219 410.175781 691.949219 C 410.023438 692.023438 409.875 692.101562 409.648438 692.101562 C 409.351562 692.175781 408.976562 692.023438 408.601562 692.023438 C 408.226562 692.023438 407.773438 692.101562 407.476562 692.101562 C 407.324219 692.101562 407.175781 691.949219 406.949219 691.949219 C 406.800781 691.949219 406.648438 691.949219 406.425781 691.875 C 406.125 691.875 405.75 691.648438 405.449219 691.5 C 405.074219 691.351562 404.625 691.351562 404.398438 691.199219 C 404.175781 691.125 404.101562 690.976562 403.949219 690.898438 C 403.800781 690.824219 403.648438 690.824219 403.425781 690.675781 C 403.199219 690.523438 402.898438 690.226562 402.601562 690 C 402.300781 689.773438 401.925781 689.550781 401.699219 689.324219 C 401.550781 689.175781 401.550781 689.023438 401.398438 688.949219 C 401.25 688.800781 401.101562 688.726562 400.949219 688.574219 C 400.800781 688.351562 400.648438 687.898438 400.425781 687.601562 C 400.199219 687.300781 399.898438 687 399.75 686.773438 C 399.675781 686.550781 399.675781 686.398438 399.601562 686.25 C 399.523438 686.101562 399.449219 685.949219 399.375 685.726562 C 399.226562 685.5 399.226562 685.050781 399.148438 684.675781 C 399 684.375 398.851562 683.925781 398.773438 683.699219 C 398.773438 683.476562 398.773438 683.324219 398.773438 683.101562 C 398.773438 682.949219 398.699219 682.800781 398.699219 682.574219 C 398.625 682.273438 398.773438 682.125 398.773438 681.601562 C 398.773438 680.175781 397.425781 674.773438 397.574219 673.273438 C 397.648438 672.675781 398.101562 672.523438 398.101562 672 C 398.101562 671.324219 397.125 669.300781 397.125 669.300781 M 420.898438 673.5 C 420.898438 674.023438 420.898438 673.425781 420.898438 673.425781 C 420.898438 673.425781 420.898438 673.5 420.898438 673.5 " clip-rule="nonzero"/></clipPath></defs><rect x="-81" width="972" fill="#ffffff" y="-80.999999" height="971.999992" fill-opacity="1"/><rect x="-81" width="972" fill="#ffffff" y="-80.999999" height="971.999992" fill-opacity="1"/><rect x="-81" width="972" fill="#0f0e17" y="-80.999999" height="971.999992" fill-opacity="1"/><path stroke-linecap="butt" transform="matrix(-0.791016, 0, 0, 0.791016, 809.999963, 0.00002)" fill-opacity="1" fill="#ff8906" fill-rule="nonzero" stroke-linejoin="miter" d="M 501.999984 301.199993 C 501.999984 301.856783 502.064181 302.508635 502.192576 303.150611 C 502.320972 303.792586 502.508626 304.419747 502.760478 305.027154 C 503.01233 305.634561 503.318502 306.207401 503.683935 306.755549 C 504.049367 307.303697 504.464182 307.807401 504.928379 308.271599 C 505.392577 308.735796 505.89628 309.150611 506.444429 309.516043 C 506.992577 309.881475 507.565416 310.187648 508.172824 310.4395 C 508.780231 310.691352 509.407392 310.879006 510.049367 311.007401 C 510.691342 311.135796 511.343194 311.199994 511.999984 311.199994 C 512.656775 311.199994 513.308627 311.135796 513.950602 311.007401 C 514.592577 310.879006 515.219738 310.691352 515.827145 310.4395 C 516.434553 310.187648 517.007392 309.881475 517.55554 309.516043 C 518.103689 309.150611 518.607392 308.735796 519.07159 308.271599 C 519.535787 307.807401 519.950602 307.303697 520.316034 306.755549 C 520.681467 306.207401 520.987639 305.634561 521.239491 305.027154 C 521.491343 304.419747 521.678997 303.792586 521.807393 303.150611 C 521.935788 302.508635 521.999985 301.856783 521.999985 301.199993 C 521.999985 300.543203 521.935788 299.891351 521.807393 299.249376 C 521.678997 298.607401 521.491343 297.98024 521.239491 297.372833 C 520.987639 296.765425 520.681467 296.192586 520.316034 295.644437 C 519.950602 295.096289 519.535787 294.592585 519.07159 294.128388 C 518.607392 293.66419 518.103689 293.249376 517.55554 292.883943 C 517.007392 292.518511 516.434553 292.212338 515.827145 291.960487 C 515.219738 291.708635 514.592577 291.52098 513.950602 291.392585 C 513.308627 291.26419 512.656775 291.199993 511.999984 291.199993 C 511.343194 291.199993 510.691342 291.26419 510.049367 291.392585 C 509.407392 291.52098 508.780231 291.708635 508.172824 291.960487 C 507.565416 292.212338 506.992577 292.518511 506.444429 292.883943 C 505.89628 293.249376 505.392577 293.66419 504.928379 294.128388 C 504.464182 294.592585 504.049367 295.096289 503.683935 295.644437 C 503.318502 296.192586 503.01233 296.765425 502.760478 297.372833 C 502.508626 297.98024 502.320972 298.607401 502.192576 299.249376 C 502.064181 299.891351 501.999984 300.543203 501.999984 301.199993 Z M 501.999984 301.199993 " stroke="#000000" stroke-width="1" stroke-opacity="1" stroke-miterlimit="4"/><path stroke-linecap="butt" transform="matrix(-0.791016, 0, 0, 0.791016, 809.999963, 0.00002)" fill-opacity="1" fill="#fffffe" fill-rule="nonzero" stroke-linejoin="miter" d="M 400.301212 744.498786 C 402.399978 743.797551 404.399978 743.101255 406.498743 742.498786 C 404.498743 743.101255 402.399978 743.797551 400.301212 744.498786 Z M 400.301212 744.498786 C 402.399978 743.797551 404.399978 743.101255 406.498743 742.498786 C 404.498743 743.101255 402.399978 743.797551 400.301212 744.498786 Z M 400.301212 744.498786 " stroke="#000000" stroke-width="1" stroke-opacity="1" stroke-miterlimit="4"/><path stroke-linecap="butt" transform="matrix(-0.791016, 0, 0, 0.791016, 809.999963, 0.00002)" fill-opacity="1" fill="#ff8906" fill-rule="nonzero" stroke-linejoin="miter" d="M 511.802454 256.60246 C 536.202455 256.60246 555.999987 276.399992 555.999987 300.799993 C 555.999987 325.199995 536.202455 345.002465 511.802454 345.002465 C 487.397514 345.002465 467.599982 325.199995 467.599982 300.799993 C 467.599982 276.399992 487.501218 256.597521 511.802454 256.597521 M 511.802454 236.59752 C 476.301217 236.59752 447.599981 265.298757 447.599981 300.799993 C 447.599981 336.30123 476.301217 365.002466 511.802454 365.002466 C 547.298752 365.002466 575.999988 336.30123 575.999988 300.799993 C 575.999988 265.298757 547.298752 236.602458 511.802454 236.602458 Z M 511.802454 236.59752 " stroke="#000000" stroke-width="1" stroke-opacity="1" stroke-miterlimit="4"/><path stroke-linecap="butt" transform="matrix(-0.791016, 0, 0, 0.791016, 809.999963, 0.00002)" fill-opacity="1" fill="#fffffe" fill-rule="nonzero" stroke-linejoin="miter" d="M 730.701233 529.501242 C 731.101233 520.800007 731.298763 512.098772 731.298763 503.298771 C 731.298763 323.69876 645.199993 164.197516 511.999984 63.802448 C 378.898742 164.197516 292.799971 323.69876 292.799971 503.298771 C 292.799971 512.098772 293.00244 520.800007 293.40244 529.397538 C 237.402437 585.397542 202.799965 662.70125 202.799965 748.098786 C 202.799965 809.797556 220.799967 867.200028 251.901203 915.397562 C 282.202439 865.600028 326.602442 825.298791 379.599976 800.09879 C 418.602448 781.501257 462.301216 771.101257 508.399984 771.101257 C 556.701222 771.101257 602.301225 782.498788 642.701227 802.800024 C 695.199996 829.10126 738.997529 870.498794 768.301235 921.200032 C 801.698768 871.797559 821.200004 812.301259 821.200004 748.098786 C 821.200004 662.70125 786.597532 585.501245 730.701233 529.501242 Z M 351.101209 383.397529 C 360.30121 345.501231 373.999976 308.701228 391.698743 273.901226 C 409.214793 239.486409 430.414794 207.520975 455.298746 177.999986 C 472.701217 157.402454 491.698749 138.098749 512.09875 120.498748 C 532.498751 138.098749 551.501221 157.402454 568.898753 177.999986 C 593.698755 207.501222 615.101225 239.802459 632.498757 273.901226 C 650.202462 308.701228 663.901228 345.501231 673.101229 383.397529 C 681.797526 419.200001 686.597526 456.098768 687.298761 493.298771 C 637.402461 458.997534 577.002458 438.898767 511.999984 438.898767 C 447.00245 438.898767 386.701211 458.997534 336.898739 493.298771 C 337.599974 456.098768 342.399974 419.200001 351.101209 383.397529 Z M 260.498734 832.597557 C 251.402438 805.600024 246.799968 777.101257 246.799968 748.197552 C 246.799968 712.400019 253.802438 677.600017 267.599969 644.997545 C 275.99997 625.200013 286.60244 606.597543 299.501206 589.501246 C 309.199972 650.997546 329.002442 709.200018 357.29874 762.098787 C 320.898738 779.901257 288.301205 803.69879 260.498734 832.597557 Z M 624.701226 747.298786 C 623.999991 746.997552 623.199991 746.800021 622.498757 746.498786 C 622.098757 746.301255 621.599991 746.197552 621.199991 746.000021 C 620.60246 745.797552 619.901226 745.501255 619.298757 745.298786 C 618.498756 744.997552 617.797522 744.800021 617.00246 744.498786 C 616.20246 744.197551 615.501225 744.000021 614.701225 743.797551 L 613.797522 743.501255 C 612.799991 743.200021 611.698756 742.800021 610.701225 742.498786 C 609.501225 742.098786 608.301225 741.797551 607.19999 741.397551 L 604.202459 740.498786 C 603.99999 740.40002 603.797521 740.40002 603.501225 740.301255 C 602.39999 740.00002 601.19999 739.60002 600.098755 739.298786 C 598.898755 738.997551 597.698755 738.701255 596.597521 738.40002 L 593.002459 737.501255 L 589.402458 736.597551 C 588.399989 736.301255 587.298755 736.098786 586.301224 735.901255 C 585.101224 735.60002 583.901223 735.397551 582.701223 735.101255 C 581.402458 734.80002 580.202458 734.498785 578.898754 734.301255 L 578.602458 734.301255 C 577.698754 734.098785 576.701223 733.901255 575.802458 733.698785 C 575.402458 733.60002 575.101223 733.60002 574.701223 733.501255 C 573.599988 733.298785 572.498754 733.101255 571.298754 732.898785 C 570.098754 732.701254 568.898753 732.498785 567.698753 732.197551 L 562.301222 731.298785 C 561.402457 731.20002 560.399987 730.997551 559.501222 730.898785 C 558.701222 730.80002 557.901222 730.597551 557.002456 730.498785 C 554.399987 730.098785 551.901222 729.797551 549.298752 729.501254 C 548.098752 729.397551 547.002456 729.20002 545.802456 729.101254 L 545.402456 729.101254 C 544.498752 728.997551 543.599986 728.898785 542.602456 728.80002 C 541.501221 728.701254 540.498752 728.597551 539.402455 728.498785 C 537.698752 728.301254 535.999986 728.197551 534.30122 728.098785 C 533.50122 728.00002 532.799986 728.00002 531.999986 727.901254 C 531.10122 727.79755 530.098751 727.79755 529.199986 727.698785 C 528.799986 727.698785 528.399986 727.698785 527.999985 727.60002 C 526.898751 727.501254 525.90122 727.501254 524.799985 727.39755 C 524.30122 727.39755 523.802454 727.298785 523.298751 727.298785 C 521.999985 727.20002 520.70122 727.20002 519.402454 727.20002 C 518.602454 727.20002 517.901219 727.101254 517.101219 727.101254 C 515.901219 727.101254 514.701219 727.101254 513.599985 726.99755 L 499.698749 726.99755 C 497.402453 726.99755 495.101218 727.101254 492.799983 727.20002 C 491.901218 727.20002 490.898749 727.298785 489.999983 727.298785 C 489.199983 727.298785 488.498748 727.39755 487.698748 727.39755 C 486.301217 727.501254 484.898748 727.60002 483.599983 727.698785 C 482.202452 727.79755 480.898748 727.901254 479.501217 728.00002 C 478.098748 728.098785 476.799982 728.197551 475.402451 728.40002 C 474.799982 728.40002 474.202451 728.498785 473.599982 728.597551 L 465.802451 729.501254 C 464.701216 729.60002 463.698747 729.797551 462.602451 729.901254 C 461.599981 730.00002 460.498747 730.197551 459.501216 730.301254 C 456.301216 730.80002 453.101215 731.20002 449.999981 731.797551 C 449.298746 731.901254 448.60245 732.00002 447.901215 732.197551 C 447.00245 732.301254 446.20245 732.498785 445.298746 732.701254 C 444.202449 732.898785 443.002449 733.101255 441.901215 733.298785 C 441.002449 733.501255 440.202449 733.60002 439.298745 733.797551 C 438.898745 733.901255 438.498745 733.901255 438.202449 734.00002 C 437.501214 734.098785 436.79998 734.301255 436.098745 734.40002 C 434.898745 734.701255 433.698745 734.898785 432.498745 735.20002 C 431.298745 735.501255 430.098745 735.698786 428.898745 736.00002 C 428.701214 736.00002 428.498745 736.098786 428.301214 736.098786 C 427.802448 736.197551 427.298745 736.301255 426.799979 736.498786 C 425.698745 736.80002 424.498745 737.101255 423.298744 737.397551 C 421.999979 737.698786 420.799979 738.00002 419.501213 738.40002 C 419.101213 738.498786 418.602448 738.602489 418.098744 738.80002 C 416.799979 739.20002 415.402448 739.501255 414.098744 739.901255 C 412.602447 740.301255 411.101213 740.80002 409.501213 741.20002 C 408.498744 741.501255 407.402447 741.797551 406.399978 742.197551 C 404.301212 742.800021 402.301212 743.501255 400.202447 744.197551 C 399.501212 744.400021 398.799978 744.701255 398.098743 744.898786 C 383.101211 717.402488 370.70121 688.498783 361.10121 658.70125 C 349.402444 622.602482 341.901209 585.101245 338.602443 547.101243 C 337.999974 540.400008 337.599974 533.802477 337.298739 527.101242 C 337.199974 525.901242 337.199974 524.701242 337.199974 523.501242 C 337.101208 522.301242 337.101208 521.101241 337.101208 519.901241 C 337.101208 518.701241 337.002443 517.501241 337.002443 516.301241 C 337.002443 515.101241 336.898739 513.901241 336.898739 512.602475 C 355.69874 498.602475 376.098742 486.800005 397.901212 477.600004 C 433.99998 462.301238 472.399982 454.602472 511.999984 454.602472 C 551.599987 454.602472 589.999989 462.400003 626.098757 477.600004 C 647.901227 486.800005 668.301229 498.498771 687.10123 512.602475 L 687.10123 512.701241 C 687.10123 513.698772 687.10123 514.602476 687.002464 515.600007 C 687.002464 517.002476 686.898761 518.400007 686.898761 519.901241 C 686.898761 520.602476 686.898761 521.200007 686.799995 521.901241 C 686.70123 523.698772 686.70123 525.402476 686.602464 527.200007 C 686.30123 533.901242 685.802464 540.498773 685.298761 547.200008 C 681.999995 585.698776 674.301229 623.698779 662.301228 660.202485 C 652.602462 690.498783 639.999992 719.600019 624.701226 747.298786 Z M 761.501234 838.197557 C 747.748147 823.239532 732.785183 809.609901 716.607405 797.313604 C 700.429626 785.017307 683.293822 774.246936 665.199994 764.997553 C 694.30123 711.298784 714.701232 652.197546 724.602467 589.501246 C 737.402468 606.597543 747.999999 625.101248 756.4 644.997545 C 770.20247 677.698782 777.200001 712.400019 777.200001 748.197552 C 777.200001 779.200023 771.901235 809.501259 761.501234 838.197557 Z M 761.501234 838.197557 " stroke="#000000" stroke-width="1" stroke-opacity="1" stroke-miterlimit="4"/><path stroke-linecap="butt" transform="matrix(-0.791016, 0, 0, 0.791016, 809.999963, 0.00002)" fill-opacity="1" fill="#ff8906" fill-rule="nonzero" stroke-linejoin="miter" d="M 511.999984 819.298791 C 520.70122 819.298791 536.701221 842.197558 536.701221 879.698794 C 536.701221 917.200031 520.70122 940.098798 511.999984 940.098798 C 503.298749 940.098798 487.298748 917.200031 487.298748 879.698794 C 487.298748 842.197558 503.298749 819.298791 511.999984 819.298791 M 511.999984 799.298789 C 487.298748 799.298789 467.298747 835.298792 467.298747 879.698794 C 467.298747 924.098797 487.298748 960.098799 511.999984 960.098799 C 536.701221 960.098799 556.701222 924.098797 556.701222 879.698794 C 556.701222 835.298792 536.701221 799.298789 511.999984 799.298789 Z M 511.999984 799.298789 " stroke="#000000" stroke-width="1" stroke-opacity="1" stroke-miterlimit="4"/><g clip-path="url(#e8ec7b071b)"><g clip-path="url(#94912c3a44)"><path fill="#ff8906" d="M 362.851562 196.425781 L 451.226562 196.425781 L 451.226562 279.300781 L 362.851562 279.300781 Z M 362.851562 196.425781 " fill-opacity="1" fill-rule="nonzero"/></g></g><g clip-path="url(#e87259d85b)"><g clip-path="url(#3497fddd92)"><path fill="#ff8906" d="M 366.976562 194.550781 L 447.976562 194.550781 L 447.976562 276.816406 L 366.976562 276.816406 Z M 366.976562 194.550781 " fill-opacity="1" fill-rule="nonzero"/></g></g><g clip-path="url(#851e52dbb2)"><g clip-path="url(#cab6befdcd)"><path fill="#ff8906" d="M 375.898438 643.199219 L 434.101562 643.199219 L 434.101562 750.734375 L 375.898438 750.734375 Z M 375.898438 643.199219 " fill-opacity="1" fill-rule="nonzero"/></g></g><g clip-path="url(#1f65d715a6)"><g clip-path="url(#e77348c9c6)"><path fill="#ff8906" d="M 394.125 647.550781 L 426.824219 647.550781 L 426.824219 695.195312 L 394.125 695.195312 Z M 394.125 647.550781 " fill-opacity="1" fill-rule="nonzero"/></g></g></svg>